<svg width="179" height="165" viewBox="0 0 179 165" fill="none" xmlns="http://www.w3.org/2000/svg">
<path d="M122.958 3.78923C133.987 2.11287 144.525 8.9561 147.479 19.713L154.212 44.229C155.004 47.1129 156.376 49.805 158.243 52.1409L174.12 71.9982C181.086 80.7111 180.428 93.2586 172.589 101.196L154.724 119.285C152.623 121.412 150.977 123.946 149.888 126.732L140.629 150.41C136.567 160.799 125.372 166.503 114.579 163.683L89.9807 157.256C87.0872 156.5 84.0699 156.342 81.1132 156.791L55.9781 160.612C44.9495 162.288 34.4119 155.445 31.4576 144.688L24.7245 120.172C23.9325 117.288 22.5608 114.596 20.6932 112.26L4.81695 92.4029C-2.1491 83.6901 -1.4915 71.1426 6.34713 63.2056L24.2121 45.1166C26.3136 42.9888 27.9592 40.4548 29.0483 37.6695L38.3071 13.9916C42.3696 3.60237 53.5649 -2.10188 64.3578 0.718102L88.9558 7.14507C91.8494 7.90109 94.8666 8.05922 97.8233 7.6098L122.958 3.78923Z" fill="#0A490A"/>
</svg>
