<svg width="31" height="33" viewBox="0 0 31 33" fill="none" xmlns="http://www.w3.org/2000/svg">
<path fill-rule="evenodd" clip-rule="evenodd" d="M31 16.5078C30.9961 25.6341 24.0511 33.0188 15.4838 33C6.90071 32.9811 -0.00491524 25.6111 5.72205e-06 16.4743C0.00886536 7.3658 6.94009 -1.07462e-05 15.4995 -1.07462e-05C24.0747 -1.07462e-05 31.002 7.37837 31 16.5078ZM9.98683 15.3918C9.98092 15.3635 9.97108 15.3321 9.96419 15.3038C10.0429 15.2157 10.1197 15.1267 10.1985 15.0407C10.9063 14.2747 11.615 13.515 12.313 12.7427C12.7422 12.2669 12.7323 11.5742 12.313 11.1551C11.8956 10.739 11.2764 10.76 10.8482 11.2232C9.70037 12.465 8.55254 13.7057 7.41654 14.959C6.65165 15.8026 6.60145 17.037 7.35157 17.89C8.52104 19.2188 9.72793 20.5077 10.9338 21.7988C11.2823 22.1729 11.8336 22.1771 12.2313 21.8648C12.7333 21.4655 12.7737 20.7121 12.3002 20.1902C11.5816 19.3917 10.8482 18.6079 10.1217 17.8156C10.0636 17.7517 10.0164 17.6784 9.92973 17.5683C10.1178 17.5683 10.2428 17.5683 10.3678 17.5683C14.586 17.5683 18.8022 17.5704 23.0194 17.5683C23.6366 17.5683 24.0845 17.1387 24.117 16.5267C24.1475 15.9367 23.7095 15.4484 23.0982 15.3991C22.9731 15.3866 22.8462 15.3928 22.7211 15.3928C18.6083 15.3907 14.4974 15.3907 10.3835 15.3907C10.2526 15.3918 10.1197 15.3918 9.98683 15.3918Z" fill="#0A490A"/>
</svg>
