<svg width="39" height="42" viewBox="0 0 39 42" fill="none" xmlns="http://www.w3.org/2000/svg">
<path d="M28.5304 26.9504L26.7316 26.9612L26.09 26.3015C28.8019 22.845 30.1857 18.1432 29.3818 13.1595C28.2709 6.33464 22.9557 0.910958 16.575 0.113492C6.93563 -1.10687 -1.11839 7.68939 0.127628 18.0766C0.942834 24.9524 6.0318 30.6232 12.3688 31.7404C16.9961 32.5483 21.3361 30.9988 24.5064 28.0311L25.1253 28.7155L25.1368 30.6567L34.8764 41.0425C35.816 42.0444 37.3416 42.0353 38.2692 41.0223C39.1968 40.0092 39.1869 38.3628 38.2474 37.3609L28.5304 26.9504ZM14.8683 27.0319C9.19853 27.0657 4.59228 22.1538 4.5558 16.0352C4.51932 9.91656 9.06668 4.95013 14.7364 4.91633C20.4062 4.88253 25.0125 9.79438 25.0489 15.913C25.0854 22.0317 20.5381 26.9981 14.8683 27.0319Z" fill="#FFC107"/>
</svg>
